<svg width="106" height="69" viewBox="0 0 106 69" fill="none" xmlns="http://www.w3.org/2000/svg">
  <!-- SuperRoo flying dragon. Rendered as a foreground-colored CSS mask by
       RooHero, so this is a silhouette: head + horn (left), three-finger
       membrane wing, long barbed tail. Eye is an evenodd cutout so it reads
       even when the whole shape is filled with one color. -->
  <path fill="currentColor" fill-rule="evenodd" clip-rule="evenodd" d="
    M 2 40
    Q 7 36 13 35
    Q 14 32 12 29
    L 18 32
    Q 20 27 26 22
    Q 24 30 28 34
    Q 36 38 44 41
    Q 56 45 68 45
    Q 80 45 90 50
    Q 98 54 104 62
    L 97 60
    Q 88 56 79 56
    L 82 62 L 74 57
    Q 64 54 54 55
    Q 43 55 33 51
    Q 22 47 13 44
    Q 7 42 2 40 Z
    M 9.1 37.4 a 1.1 1.1 0 1 0 0.02 0 Z
  "/>
  <path fill="currentColor" d="
    M 40 41
    Q 42 22 52 6
    Q 53 18 58 22
    Q 56 14 60 9
    Q 62 19 66 24
    Q 65 16 70 12
    Q 72 24 74 33
    Q 70 30 64 31
    Q 56 33 50 37
    Q 44 39 40 41 Z
  "/>
</svg>
